<svg width="1182" height="750" viewBox="0 0 1182 750" fill="none" xmlns="http://www.w3.org/2000/svg">
<path d="M200.501 418.102C191.535 380.154 223.912 350.694 266.142 338.886M529.732 343.414C575.658 356.56 623.536 362.801 670.504 364.329M529.732 343.414C422.365 312.681 330.556 320.875 266.142 338.886M529.732 343.414C528.884 335.399 544.537 320.292 609.215 316.923M975.99 316.246C972.41 317.604 927.397 331.72 923.32 333.14M757.649 290.21C755.802 294.774 750.346 304.922 729.5 310.5M670.504 364.329C675.976 365.75 681.391 367.905 686.784 370.624M670.504 364.329C716.658 365.83 742.818 365.524 784.5 360M852.455 457.744C835.556 459.45 814.502 452.927 800 447.5M266.142 338.886C296.882 341.891 321.172 346.689 341.077 352.783M517.282 463.404C492.816 453.503 471.57 439.729 456.5 428.313M341.077 352.783C337.5 366.5 333.476 386.822 346.5 399.5M341.077 352.783C341.916 353.042 341.077 352.783 341.916 353.042M341.916 353.042C347.383 349.832 371.476 347.094 384.5 348M341.916 353.042C350.742 355.777 358.701 358.769 365.976 361.974M396 375C404.3 369.717 436.5 364.329 459 375M365.976 361.974C379.383 376.163 405.532 422.483 404 441.5M365.976 361.974C385.837 370.723 400.606 381.059 414.015 392.089C425.665 401.672 421.456 399.454 433.5 409.5M456.5 428.313C457.777 436.854 464.995 458.424 470.358 465.668M456.5 428.313C452.491 425.276 437.175 412.565 433.5 409.5M433.5 409.5C465.5 409.5 473.242 407.406 485.5 406.5C497.758 405.594 510.26 414.729 515.367 418.125M602.512 316.246C608.577 314.359 644.669 287.178 648.5 274.5M609.215 316.923C617.621 316.485 626.854 316.246 636.987 316.246C638.603 316.246 640.199 316.24 641.775 316.229C645.051 316.205 648.243 316.156 651.351 316.085M609.215 316.923C617.515 320.093 647.521 340.755 651.351 348M651.351 316.085C661.467 315.852 642.931 316.757 651.351 316.085ZM651.351 316.085C656.459 321.504 707 340.896 726 337.5M651.351 316.085C671.279 314.494 713.598 310.5 729.5 310.5M684.5 314.237C686.415 314.237 714.576 289.5 716.47 272.5M729.5 310.5C733.65 311.967 761.5 315.5 763.5 332.5M686.784 370.624C693.487 376.27 712 413.5 696 444.5M686.784 370.624C698.261 376.411 709.637 384.753 721.259 394.019M721.259 394.019C730.197 402.431 756.691 458.294 760.522 475.5M721.259 394.019C730.919 401.721 740.749 410.062 750.945 418.102C754.1 420.59 757.29 423.049 760.522 425.452M737.538 405.673C742.965 407.294 776.137 395.107 781.5 388.5M760.522 425.452C769.779 425.273 801.5 419 822.5 408M760.522 425.452C774.587 435.911 783.899 441.475 800 447.5M800 447.5C800.638 451.904 814.839 484.378 822.5 488M784.5 360C796.63 358.027 867.113 380.543 885.5 402.277M784.5 360C794.286 358.703 813.145 356.043 822.5 354.5M822.5 354.5C828.246 350.933 850.156 310.273 852.455 298.5M822.5 354.5C835.425 352.368 857.75 348.51 869.692 346.031M869.692 346.031C876.396 342.14 899.766 289.178 899 276.5M869.692 346.031C872.924 345.36 876.117 344.679 879.268 343.99M879.268 343.99C887.887 345.307 932.508 357.116 944 387M879.268 343.99C888.931 341.875 898.206 339.679 907.04 337.442C912.649 336.021 918.08 334.584 923.32 333.14M923.32 333.14C928.975 331.583 934.407 330.018 939.599 328.458C948.658 325.738 915.81 335.756 923.32 333.14ZM923.32 333.14C924.596 328.353 945.5 283.5 985 279" stroke="#C5E2B4" stroke-width="21" stroke-linecap="round"/>
<path d="M200.501 408.102C191.535 370.154 223.912 340.694 266.142 328.886M529.732 333.414C575.658 346.56 623.536 352.801 670.504 354.329M529.732 333.414C422.365 302.681 330.556 310.875 266.142 328.886M529.732 333.414C528.884 325.399 544.537 310.292 609.215 306.923M975.99 306.246C972.41 307.604 927.397 321.72 923.32 323.14M757.649 280.21C755.802 284.774 750.346 294.922 729.5 300.5M670.504 354.329C675.976 355.75 681.391 357.905 686.784 360.624M670.504 354.329C716.658 355.83 742.818 355.524 784.5 350M852.455 447.744C835.556 449.45 814.502 442.927 800 437.5M266.142 328.886C296.882 331.891 321.172 336.689 341.077 342.783M517.282 453.404C492.816 443.503 471.57 429.729 456.5 418.313M341.077 342.783C337.5 356.5 333.476 376.822 346.5 389.5M341.077 342.783C341.916 343.042 341.077 342.783 341.916 343.042M341.916 343.042C347.383 339.832 371.476 337.094 384.5 338M341.916 343.042C350.742 345.777 358.701 348.769 365.976 351.974M396 365C404.3 359.717 436.5 354.329 459 365M365.976 351.974C379.383 366.163 405.532 412.483 404 431.5M365.976 351.974C385.837 360.723 400.606 371.059 414.015 382.089C425.665 391.672 421.456 389.454 433.5 399.5M456.5 418.313C457.777 426.854 464.995 448.424 470.358 455.668M456.5 418.313C452.491 415.276 437.175 402.565 433.5 399.5M433.5 399.5C465.5 399.5 473.242 397.406 485.5 396.5C497.758 395.594 510.26 404.729 515.367 408.125M601.5 307.396C607.565 305.509 644.669 277.178 648.5 264.5M609.215 306.923C617.621 306.485 626.854 306.246 636.987 306.246C638.603 306.246 640.199 306.24 641.775 306.229C645.051 306.205 648.243 306.156 651.351 306.085M609.215 306.923C617.515 310.093 647.521 330.755 651.351 338M651.351 306.085C661.467 305.852 642.931 306.757 651.351 306.085ZM651.351 306.085C656.459 311.504 707 330.896 726 327.5M651.351 306.085C671.279 304.494 713.598 300.5 729.5 300.5M684.5 304.237C686.415 304.237 713.106 275 715 258M729.5 300.5C733.65 301.967 761.5 305.5 763.5 322.5M686.784 360.624C693.487 366.27 712 403.5 696 434.5M686.784 360.624C698.261 366.411 709.637 374.753 721.259 384.019M721.259 384.019C730.197 392.431 756.691 448.294 760.522 465.5M721.259 384.019C730.919 391.721 740.749 400.062 750.945 408.102C754.1 410.59 757.29 413.049 760.522 415.452M737.538 395.673C742.965 397.294 776.137 385.107 781.5 378.5M760.522 415.452C769.779 415.273 801.5 409 822.5 398M760.522 415.452C774.587 425.911 783.899 431.475 800 437.5M800 437.5C800.638 441.904 814.839 474.378 822.5 478M784.5 350C796.63 348.027 867.113 370.543 885.5 392.277M784.5 350C794.286 348.703 813.145 346.043 822.5 344.5M822.5 344.5C828.246 340.933 850.156 300.273 852.455 288.5M822.5 344.5C835.425 342.368 857.75 338.51 869.692 336.031M869.692 336.031C876.396 332.14 899.766 279.178 899 266.5M869.692 336.031C872.924 335.36 876.117 334.679 879.268 333.99M879.268 333.99C887.887 335.307 932.508 347.116 944 377M879.268 333.99C888.931 331.875 898.206 329.679 907.04 327.442C912.649 326.021 918.08 324.584 923.32 323.14M923.32 323.14C928.975 321.583 934.407 320.018 939.599 318.458C948.658 315.738 915.81 325.756 923.32 323.14ZM923.32 323.14C924.596 318.353 945.5 273.5 985 269" stroke="#3B532D" stroke-width="6" stroke-linecap="round"/>
</svg>
