<svg width="814" height="562" viewBox="0 0 814 562" fill="none" xmlns="http://www.w3.org/2000/svg">
<g clip-path="url(#clip0_8_7)">
<path d="M15.5011 476.102C6.53541 438.154 38.9118 408.694 81.1415 396.886M344.732 401.414C390.658 414.56 438.536 420.801 485.504 422.329M344.732 401.414C237.365 370.681 145.556 378.875 81.1415 396.886M344.732 401.414C343.884 393.399 359.537 378.292 424.215 374.923M790.99 374.246C787.41 375.604 742.397 389.72 738.32 391.14M572.649 348.21C570.802 352.774 565.346 362.922 544.5 368.5M485.504 422.329C490.976 423.75 496.391 425.905 501.784 428.624M485.504 422.329C531.658 423.83 557.818 423.524 599.5 418M667.455 515.744C650.556 517.45 629.502 510.927 615 505.5M81.1415 396.886C111.882 399.891 136.172 404.689 156.077 410.783M332.282 521.404C307.816 511.503 286.57 497.729 271.5 486.313M156.077 410.783C152.5 424.5 148.476 444.822 161.5 457.5M156.077 410.783C156.916 411.042 156.077 410.783 156.916 411.042M156.916 411.042C162.383 407.832 186.476 405.094 199.5 406M156.916 411.042C165.742 413.777 173.701 416.769 180.976 419.974M211 433C219.3 427.717 251.5 422.329 274 433M180.976 419.974C194.383 434.163 220.532 480.483 219 499.5M180.976 419.974C200.837 428.723 215.606 439.059 229.015 450.089C240.665 459.672 236.456 457.454 248.5 467.5M271.5 486.313C272.777 494.854 279.995 516.424 285.358 523.668M271.5 486.313C267.491 483.276 252.175 470.565 248.5 467.5M248.5 467.5C280.5 467.5 288.242 465.406 300.5 464.5C312.758 463.594 325.26 472.729 330.367 476.125M417.512 374.246C423.577 372.359 459.669 345.178 463.5 332.5M424.215 374.923C432.621 374.485 441.854 374.246 451.987 374.246C453.603 374.246 455.199 374.24 456.775 374.229C460.051 374.205 463.243 374.156 466.351 374.085M424.215 374.923C432.515 378.093 462.521 398.755 466.351 406M466.351 374.085C476.467 373.852 457.931 374.757 466.351 374.085ZM466.351 374.085C471.459 379.504 522 398.896 541 395.5M466.351 374.085C486.279 372.494 528.598 368.5 544.5 368.5M499.5 372.237C501.415 372.237 529.576 347.5 531.47 330.5M544.5 368.5C548.65 369.967 576.5 373.5 578.5 390.5M501.784 428.624C508.487 434.27 527 471.5 511 502.5M501.784 428.624C513.261 434.411 524.637 442.753 536.259 452.019M536.259 452.019C545.197 460.431 571.691 516.294 575.522 533.5M536.259 452.019C545.919 459.721 555.749 468.062 565.945 476.102C569.1 478.59 572.29 481.049 575.522 483.452M552.538 463.673C557.965 465.294 591.137 453.107 596.5 446.5M575.522 483.452C584.779 483.273 616.5 477 637.5 466M575.522 483.452C589.587 493.911 598.899 499.475 615 505.5M615 505.5C615.638 509.904 629.839 542.378 637.5 546M599.5 418C611.63 416.027 682.113 438.543 700.5 460.277M599.5 418C609.286 416.703 628.145 414.043 637.5 412.5M637.5 412.5C643.246 408.933 665.156 368.273 667.455 356.5M637.5 412.5C650.425 410.368 672.75 406.51 684.692 404.031M684.692 404.031C691.396 400.14 714.766 347.178 714 334.5M684.692 404.031C687.924 403.36 691.117 402.679 694.268 401.99M694.268 401.99C702.887 403.307 747.508 415.116 759 445M694.268 401.99C703.931 399.875 713.206 397.679 722.04 395.442C727.649 394.021 733.08 392.584 738.32 391.14M738.32 391.14C743.975 389.583 749.407 388.018 754.599 386.458C763.658 383.738 730.81 393.756 738.32 391.14ZM738.32 391.14C739.596 386.353 760.5 341.5 800 337" stroke="#94A56E" stroke-width="21" stroke-linecap="round"/>
<path d="M15.5011 466.102C6.53541 428.154 38.9118 398.694 81.1415 386.886M344.732 391.414C390.658 404.56 438.536 410.801 485.504 412.329M344.732 391.414C237.365 360.681 145.556 368.875 81.1415 386.886M344.732 391.414C343.884 383.399 359.537 368.292 424.215 364.923M790.99 364.246C787.41 365.604 742.397 379.72 738.32 381.14M572.649 338.21C570.802 342.774 565.346 352.922 544.5 358.5M485.504 412.329C490.976 413.75 496.391 415.905 501.784 418.624M485.504 412.329C531.658 413.83 557.818 413.524 599.5 408M667.455 505.744C650.556 507.45 629.502 500.927 615 495.5M81.1415 386.886C111.882 389.891 136.172 394.689 156.077 400.783M332.282 511.404C307.816 501.503 286.57 487.729 271.5 476.313M156.077 400.783C152.5 414.5 148.476 434.822 161.5 447.5M156.077 400.783C156.916 401.042 156.077 400.783 156.916 401.042M156.916 401.042C162.383 397.832 186.476 395.094 199.5 396M156.916 401.042C165.742 403.777 173.701 406.769 180.976 409.974M211 423C219.3 417.717 251.5 412.329 274 423M180.976 409.974C194.383 424.163 220.532 470.483 219 489.5M180.976 409.974C200.837 418.723 215.606 429.059 229.015 440.089C240.665 449.672 236.456 447.454 248.5 457.5M271.5 476.313C272.777 484.854 279.995 506.424 285.358 513.668M271.5 476.313C267.491 473.276 252.175 460.565 248.5 457.5M248.5 457.5C280.5 457.5 288.242 455.406 300.5 454.5C312.758 453.594 325.26 462.729 330.367 466.125M416.5 365.396C422.565 363.509 459.669 335.178 463.5 322.5M424.215 364.923C432.621 364.485 441.854 364.246 451.987 364.246C453.603 364.246 455.199 364.24 456.775 364.229C460.051 364.205 463.243 364.156 466.351 364.085M424.215 364.923C432.515 368.093 462.521 388.755 466.351 396M466.351 364.085C476.467 363.852 457.931 364.757 466.351 364.085ZM466.351 364.085C471.459 369.504 522 388.896 541 385.5M466.351 364.085C486.279 362.494 528.598 358.5 544.5 358.5M499.5 362.237C501.415 362.237 528.106 333 530 316M544.5 358.5C548.65 359.967 576.5 363.5 578.5 380.5M501.784 418.624C508.487 424.27 527 461.5 511 492.5M501.784 418.624C513.261 424.411 524.637 432.753 536.259 442.019M536.259 442.019C545.197 450.431 571.691 506.294 575.522 523.5M536.259 442.019C545.919 449.721 555.749 458.062 565.945 466.102C569.1 468.59 572.29 471.049 575.522 473.452M552.538 453.673C557.965 455.294 591.137 443.107 596.5 436.5M575.522 473.452C584.779 473.273 616.5 467 637.5 456M575.522 473.452C589.587 483.911 598.899 489.475 615 495.5M615 495.5C615.638 499.904 629.839 532.378 637.5 536M599.5 408C611.63 406.027 682.113 428.543 700.5 450.277M599.5 408C609.286 406.703 628.145 404.043 637.5 402.5M637.5 402.5C643.246 398.933 665.156 358.273 667.455 346.5M637.5 402.5C650.425 400.368 672.75 396.51 684.692 394.031M684.692 394.031C691.396 390.14 714.766 337.178 714 324.5M684.692 394.031C687.924 393.36 691.117 392.679 694.268 391.99M694.268 391.99C702.887 393.307 747.508 405.116 759 435M694.268 391.99C703.931 389.875 713.206 387.679 722.04 385.442C727.649 384.021 733.08 382.584 738.32 381.14M738.32 381.14C743.975 379.583 749.407 378.018 754.599 376.458C763.658 373.738 730.81 383.756 738.32 381.14ZM738.32 381.14C739.596 376.353 760.5 331.5 800 327" stroke="white" stroke-width="6" stroke-linecap="round"/>
<path d="M118.076 14.9326H119.132C124.675 14.9326 133.475 28.6595 145.53 56.1135C166.736 96.2385 188.558 116.301 210.997 116.301C229.827 116.301 242.85 105.742 250.066 84.6234C254.641 67.6406 256.929 51.9778 256.929 37.6349C258.689 33.3232 261.681 29.8034 265.905 27.0757H268.544C269.776 27.0757 270.832 29.0115 271.712 32.8832L271.184 35.523C271.184 69.6645 264.849 111.901 252.178 162.234C241.09 196.815 229.651 223.037 217.86 240.9C197.27 273.633 170.344 290 137.082 290C108.132 290 82.4383 277.681 60 253.043V250.403C61.4959 240.9 64.4877 236.148 68.9753 236.148H71.0872C93.8775 258.674 117.108 269.937 140.778 269.937H145.002C173.951 269.937 198.062 251.635 217.332 215.03C226.484 198.311 235.459 172.089 244.258 136.363L247.954 116.829C235.987 129.5 223.844 135.836 211.525 135.836H205.717C177.031 135.836 149.929 108.558 124.411 54.0016H123.883V59.8092L123.355 60.3372L123.883 60.8651V72.4803C123.883 103.894 131.803 126.772 147.641 141.115V142.699L146.586 143.755H146.058C138.93 143.755 131.011 135.66 122.299 119.469C113.5 95.0946 108.748 71.8643 108.044 49.778L106.988 40.2747C108.396 23.3799 112.092 14.9326 118.076 14.9326ZM287.023 143.623H287.551C289.311 144.679 290.191 145.911 290.191 147.319L285.439 213.842V214.37H285.967C293.711 202.403 304.622 192.371 318.701 184.276C336.651 175.125 353.37 170.549 368.857 170.549H371.497C373.961 170.549 375.192 171.781 375.192 174.245V175.301C373.873 183.748 369.649 187.972 362.521 187.972C345.099 187.972 326.268 194.659 306.03 208.034C294.414 217.537 288.607 227.921 288.607 239.184C288.607 253.527 295.118 263.91 308.141 270.333C312.189 271.389 316.413 271.917 320.813 271.917H325.036C341.491 271.917 358.034 263.822 374.664 247.631H375.192V248.687C367.537 265.758 352.05 278.781 328.732 287.756C323.188 289.164 318.261 289.868 313.949 289.868C303.038 289.868 293.535 285.468 285.439 276.669L285.967 280.365L287.023 303.067C287.023 306.411 284.031 309.931 278.048 313.626H275.408C272.592 313.626 271.184 295.148 271.184 258.19V250.271C271.184 218.153 273.12 185.068 276.992 151.014C280.072 146.087 283.415 143.623 287.023 143.623ZM444.223 155.766C472.469 155.766 491.3 171.077 500.715 201.699C503.531 211.906 504.939 220.881 504.939 228.625C504.939 250.095 495.259 267.694 475.901 281.421C463.846 287.052 452.407 289.868 441.583 289.868C432.168 289.868 421.785 287.932 410.434 284.06V284.588C406.562 345.392 402.69 390.444 398.819 419.746C395.651 433.561 392.131 443.944 388.259 450.896C380.076 463.919 370.749 470.431 360.278 470.431H356.054L354.47 468.847V467.263C354.47 466.647 357.462 464.711 363.445 461.455C371.629 453.36 377.084 442.977 379.812 430.306C385.092 409.011 391.955 326.649 400.403 183.22C400.403 176.708 402.514 172.309 406.738 170.021C416.065 160.518 428.56 155.766 444.223 155.766ZM409.906 261.886L409.378 262.414C417.033 266.638 426.361 268.75 437.36 268.75H440.528C464.11 268.75 480.125 258.718 488.572 238.656L490.156 227.041C490.156 208.122 480.301 192.811 460.59 181.108C453.727 178.292 446.863 176.884 440 176.884H439.472C423.281 177.764 415.185 180.228 415.185 184.276C411.666 218.153 409.906 244.023 409.906 261.886ZM577.929 149.035H581.097C603.447 149.035 619.462 163.465 629.141 192.327C631.253 200.335 632.309 208.078 632.309 215.558V216.086C632.309 235.268 625.27 253.923 611.191 272.049C599.928 284.016 587.609 290 574.234 290C553.291 290 537.628 277.857 527.245 253.571C523.373 243.275 521.438 233.244 521.438 223.477C521.438 202.007 529.709 181.768 546.252 162.762C556.635 153.61 567.194 149.035 577.929 149.035ZM536.22 215.558V217.141C536.22 239.052 544.492 255.771 561.035 267.298C566.754 269.762 571.858 270.993 576.345 270.993C594.824 270.993 608.551 257.97 617.526 231.924L618.582 221.893V219.253C618.582 201.303 611.367 185.992 596.936 173.321C590.6 169.801 584.969 168.041 580.041 168.041H575.817C562.09 168.041 550.651 176.664 541.5 193.911C537.98 201.303 536.22 208.518 536.22 215.558ZM658.707 132.14C662.931 132.14 668.211 140.587 674.546 157.482C676.658 164.433 677.714 172.529 677.714 181.768V188.632C689.241 169.625 703.672 160.122 721.007 160.122C737.901 160.122 746.349 174.377 746.349 202.887V219.253C746.349 248.115 750.396 264.482 758.492 268.354C762.715 271.169 767.291 272.577 772.219 272.577C773.627 274.249 774.331 275.657 774.331 276.801C771.955 285.6 768.611 290 764.299 290C754.268 290 745.997 284.72 739.485 274.161C735.262 264.746 733.15 254.363 733.15 243.012L734.206 215.03V211.334C734.206 195.671 730.862 185.464 724.174 180.712C721.183 178.952 717.487 178.072 713.087 178.072C692.057 178.072 677.098 202.007 668.211 249.875C664.427 275.569 661.787 288.416 660.291 288.416C657.387 291.232 654.748 292.64 652.372 292.64C650.7 292.64 649.644 291.056 649.204 287.888L663.459 197.079V184.408C663.459 171.209 658.707 158.538 649.204 146.395V143.227C651.668 135.836 654.836 132.14 658.707 132.14Z" fill="white"/>
</g>
<defs>
<clipPath id="clip0_8_7">
<rect width="814" height="562" fill="white"/>
</clipPath>
</defs>
</svg>
