<svg width="1117" height="883" viewBox="0 0 1117 883" fill="none" xmlns="http://www.w3.org/2000/svg">
<path d="M185.501 656.102C176.535 618.154 208.912 588.694 251.142 576.886M514.732 581.414C560.658 594.56 608.536 600.801 655.504 602.329M514.732 581.414C407.365 550.681 315.556 558.875 251.142 576.886M514.732 581.414C513.884 573.399 529.537 558.292 594.215 554.923M960.99 554.246C957.41 555.604 912.397 569.72 908.32 571.14M742.649 528.21C740.802 532.774 735.346 542.922 714.5 548.5M655.504 602.329C660.976 603.75 666.391 605.905 671.784 608.624M655.504 602.329C701.658 603.83 727.818 603.524 769.5 598M837.455 695.744C820.556 697.45 799.502 690.927 785 685.5M251.142 576.886C281.882 579.891 306.172 584.689 326.077 590.783M502.282 701.404C477.816 691.503 456.57 677.729 441.5 666.313M326.077 590.783C322.5 604.5 318.476 624.822 331.5 637.5M326.077 590.783C326.916 591.042 326.077 590.783 326.916 591.042M326.916 591.042C332.383 587.832 356.476 585.094 369.5 586M326.916 591.042C335.742 593.777 343.701 596.769 350.976 599.974M381 613C389.3 607.717 421.5 602.329 444 613M350.976 599.974C364.383 614.163 390.532 660.483 389 679.5M350.976 599.974C370.837 608.723 385.606 619.059 399.015 630.089C410.665 639.672 406.456 637.454 418.5 647.5M441.5 666.313C442.777 674.854 449.995 696.424 455.358 703.668M441.5 666.313C437.491 663.276 422.175 650.565 418.5 647.5M418.5 647.5C450.5 647.5 458.242 645.406 470.5 644.5C482.758 643.594 495.26 652.729 500.367 656.125M587.512 554.246C593.577 552.359 629.669 525.178 633.5 512.5M594.215 554.923C602.621 554.485 611.854 554.246 621.987 554.246C623.603 554.246 625.199 554.24 626.775 554.229C630.051 554.205 633.243 554.156 636.351 554.085M594.215 554.923C602.515 558.093 632.521 578.755 636.351 586M636.351 554.085C646.467 553.852 627.931 554.757 636.351 554.085ZM636.351 554.085C641.459 559.504 692 578.896 711 575.5M636.351 554.085C656.279 552.494 698.598 548.5 714.5 548.5M669.5 552.237C671.415 552.237 699.576 527.5 701.47 510.5M714.5 548.5C718.65 549.967 746.5 553.5 748.5 570.5M671.784 608.624C678.487 614.27 697 651.5 681 682.5M671.784 608.624C683.261 614.411 694.637 622.753 706.259 632.019M706.259 632.019C715.197 640.431 741.691 696.294 745.522 713.5M706.259 632.019C715.919 639.721 725.749 648.062 735.945 656.102C739.1 658.59 742.29 661.049 745.522 663.452M722.538 643.673C727.965 645.294 761.137 633.107 766.5 626.5M745.522 663.452C754.779 663.273 786.5 657 807.5 646M745.522 663.452C759.587 673.911 768.899 679.475 785 685.5M785 685.5C785.638 689.904 799.839 722.378 807.5 726M769.5 598C781.63 596.027 852.113 618.543 870.5 640.277M769.5 598C779.286 596.703 798.145 594.043 807.5 592.5M807.5 592.5C813.246 588.933 835.156 548.273 837.455 536.5M807.5 592.5C820.425 590.368 842.75 586.51 854.692 584.031M854.692 584.031C861.396 580.14 884.766 527.178 884 514.5M854.692 584.031C857.924 583.36 861.117 582.679 864.268 581.99M864.268 581.99C872.887 583.307 917.508 595.116 929 625M864.268 581.99C873.931 579.875 883.206 577.679 892.04 575.442C897.649 574.021 903.08 572.584 908.32 571.14M908.32 571.14C913.975 569.583 919.407 568.018 924.599 566.458C933.658 563.738 900.81 573.756 908.32 571.14ZM908.32 571.14C909.596 566.353 930.5 521.5 970 517" stroke="#94A56E" stroke-width="21" stroke-linecap="round"/>
<path d="M185.501 646.102C176.535 608.154 208.912 578.694 251.142 566.886M514.732 571.414C560.658 584.56 608.536 590.801 655.504 592.329M514.732 571.414C407.365 540.681 315.556 548.875 251.142 566.886M514.732 571.414C513.884 563.399 529.537 548.292 594.215 544.923M960.99 544.246C957.41 545.604 912.397 559.72 908.32 561.14M742.649 518.21C740.802 522.774 735.346 532.922 714.5 538.5M655.504 592.329C660.976 593.75 666.391 595.905 671.784 598.624M655.504 592.329C701.658 593.83 727.818 593.524 769.5 588M837.455 685.744C820.556 687.45 799.502 680.927 785 675.5M251.142 566.886C281.882 569.891 306.172 574.689 326.077 580.783M502.282 691.404C477.816 681.503 456.57 667.729 441.5 656.313M326.077 580.783C322.5 594.5 318.476 614.822 331.5 627.5M326.077 580.783C326.916 581.042 326.077 580.783 326.916 581.042M326.916 581.042C332.383 577.832 356.476 575.094 369.5 576M326.916 581.042C335.742 583.777 343.701 586.769 350.976 589.974M381 603C389.3 597.717 421.5 592.329 444 603M350.976 589.974C364.383 604.163 390.532 650.483 389 669.5M350.976 589.974C370.837 598.723 385.606 609.059 399.015 620.089C410.665 629.672 406.456 627.454 418.5 637.5M441.5 656.313C442.777 664.854 449.995 686.424 455.358 693.668M441.5 656.313C437.491 653.276 422.175 640.565 418.5 637.5M418.5 637.5C450.5 637.5 458.242 635.406 470.5 634.5C482.758 633.594 495.26 642.729 500.367 646.125M586.5 545.396C592.565 543.509 629.669 515.178 633.5 502.5M594.215 544.923C602.621 544.485 611.854 544.246 621.987 544.246C623.603 544.246 625.199 544.24 626.775 544.229C630.051 544.205 633.243 544.156 636.351 544.085M594.215 544.923C602.515 548.093 632.521 568.755 636.351 576M636.351 544.085C646.467 543.852 627.931 544.757 636.351 544.085ZM636.351 544.085C641.459 549.504 692 568.896 711 565.5M636.351 544.085C656.279 542.494 698.598 538.5 714.5 538.5M669.5 542.237C671.415 542.237 698.106 513 700 496M714.5 538.5C718.65 539.967 746.5 543.5 748.5 560.5M671.784 598.624C678.487 604.27 697 641.5 681 672.5M671.784 598.624C683.261 604.411 694.637 612.753 706.259 622.019M706.259 622.019C715.197 630.431 741.691 686.294 745.522 703.5M706.259 622.019C715.919 629.721 725.749 638.062 735.945 646.102C739.1 648.59 742.29 651.049 745.522 653.452M722.538 633.673C727.965 635.294 761.137 623.107 766.5 616.5M745.522 653.452C754.779 653.273 786.5 647 807.5 636M745.522 653.452C759.587 663.911 768.899 669.475 785 675.5M785 675.5C785.638 679.904 799.839 712.378 807.5 716M769.5 588C781.63 586.027 852.113 608.543 870.5 630.277M769.5 588C779.286 586.703 798.145 584.043 807.5 582.5M807.5 582.5C813.246 578.933 835.156 538.273 837.455 526.5M807.5 582.5C820.425 580.368 842.75 576.51 854.692 574.031M854.692 574.031C861.396 570.14 884.766 517.178 884 504.5M854.692 574.031C857.924 573.36 861.117 572.679 864.268 571.99M864.268 571.99C872.887 573.307 917.508 585.116 929 615M864.268 571.99C873.931 569.875 883.206 567.679 892.04 565.442C897.649 564.021 903.08 562.584 908.32 561.14M908.32 561.14C913.975 559.583 919.407 558.018 924.599 556.458C933.658 553.738 900.81 563.756 908.32 561.14ZM908.32 561.14C909.596 556.353 930.5 511.5 970 507" stroke="white" stroke-width="6" stroke-linecap="round"/>
<path d="M288.076 194.933H289.132C294.675 194.933 303.475 208.66 315.53 236.113C336.736 276.238 358.558 296.301 380.997 296.301C399.827 296.301 412.85 285.742 420.066 264.623C424.641 247.641 426.929 231.978 426.929 217.635C428.689 213.323 431.681 209.803 435.905 207.076H438.544C439.776 207.076 440.832 209.012 441.712 212.883L441.184 215.523C441.184 249.664 434.849 291.901 422.178 342.234C411.09 376.815 399.651 403.037 387.86 420.9C367.27 453.633 340.344 470 307.082 470C278.132 470 252.438 457.681 230 433.043V430.403C231.496 420.9 234.488 416.148 238.975 416.148H241.087C263.877 438.674 287.108 449.937 310.778 449.937H315.002C343.951 449.937 368.062 431.635 387.332 395.03C396.484 378.311 405.459 352.089 414.258 316.363L417.954 296.829C405.987 309.5 393.844 315.836 381.525 315.836H375.717C347.031 315.836 319.929 288.558 294.411 234.002H293.883V239.809L293.355 240.337L293.883 240.865V252.48C293.883 283.894 301.803 306.772 317.641 321.115V322.699L316.586 323.755H316.058C308.93 323.755 301.011 315.66 292.299 299.469C283.5 275.095 278.748 251.864 278.044 229.778L276.988 220.275C278.396 203.38 282.092 194.933 288.076 194.933ZM457.023 323.623H457.551C459.311 324.679 460.191 325.911 460.191 327.319L455.439 393.842V394.37H455.967C463.711 382.403 474.622 372.371 488.701 364.276C506.651 355.125 523.37 350.549 538.857 350.549H541.497C543.961 350.549 545.192 351.781 545.192 354.245V355.301C543.873 363.748 539.649 367.972 532.521 367.972C515.099 367.972 496.268 374.659 476.03 388.034C464.414 397.537 458.607 407.921 458.607 419.184C458.607 433.527 465.118 443.91 478.141 450.333C482.189 451.389 486.413 451.917 490.813 451.917H495.036C511.491 451.917 528.034 443.822 544.664 427.631H545.192V428.687C537.537 445.758 522.05 458.781 498.732 467.756C493.188 469.164 488.261 469.868 483.949 469.868C473.038 469.868 463.535 465.468 455.439 456.669L455.967 460.365L457.023 483.067C457.023 486.411 454.031 489.931 448.048 493.626H445.408C442.592 493.626 441.184 475.148 441.184 438.19V430.271C441.184 398.153 443.12 365.068 446.992 331.014C450.072 326.087 453.415 323.623 457.023 323.623ZM614.223 335.766C642.469 335.766 661.3 351.077 670.715 381.699C673.531 391.906 674.939 400.881 674.939 408.625C674.939 430.095 665.259 447.694 645.901 461.421C633.846 467.052 622.407 469.868 611.583 469.868C602.168 469.868 591.785 467.932 580.434 464.06V464.588C576.562 525.392 572.69 570.444 568.819 599.746C565.651 613.561 562.131 623.944 558.259 630.896C550.076 643.919 540.749 650.431 530.278 650.431H526.054L524.47 648.847V647.263C524.47 646.647 527.462 644.711 533.445 641.455C541.629 633.36 547.084 622.977 549.812 610.306C555.092 589.011 561.955 506.649 570.403 363.22C570.403 356.708 572.514 352.309 576.738 350.021C586.065 340.518 598.56 335.766 614.223 335.766ZM579.906 441.886L579.378 442.414C587.033 446.638 596.361 448.75 607.36 448.75H610.528C634.11 448.75 650.125 438.718 658.572 418.656L660.156 407.041C660.156 388.122 650.301 372.811 630.59 361.108C623.727 358.292 616.863 356.884 610 356.884H609.472C593.281 357.764 585.185 360.228 585.185 364.276C581.666 398.153 579.906 424.023 579.906 441.886ZM747.929 329.035H751.097C773.447 329.035 789.462 343.465 799.141 372.327C801.253 380.335 802.309 388.078 802.309 395.558V396.086C802.309 415.268 795.27 433.923 781.191 452.049C769.928 464.016 757.609 470 744.234 470C723.291 470 707.628 457.857 697.245 433.571C693.373 423.275 691.438 413.244 691.438 403.477C691.438 382.007 699.709 361.768 716.252 342.762C726.635 333.61 737.194 329.035 747.929 329.035ZM706.22 395.558V397.141C706.22 419.052 714.492 435.771 731.035 447.298C736.754 449.762 741.858 450.993 746.345 450.993C764.824 450.993 778.551 437.97 787.526 411.924L788.582 401.893V399.253C788.582 381.303 781.367 365.992 766.936 353.321C760.6 349.801 754.969 348.041 750.041 348.041H745.817C732.09 348.041 720.651 356.664 711.5 373.911C707.98 381.303 706.22 388.518 706.22 395.558ZM828.707 312.14C832.931 312.14 838.211 320.587 844.546 337.482C846.658 344.433 847.714 352.529 847.714 361.768V368.632C859.241 349.625 873.672 340.122 891.007 340.122C907.901 340.122 916.349 354.377 916.349 382.887V399.253C916.349 428.115 920.396 444.482 928.492 448.354C932.715 451.169 937.291 452.577 942.219 452.577C943.627 454.249 944.331 455.657 944.331 456.801C941.955 465.6 938.611 470 934.299 470C924.268 470 915.997 464.72 909.485 454.161C905.262 444.746 903.15 434.363 903.15 423.012L904.206 395.03V391.334C904.206 375.671 900.862 365.464 894.174 360.712C891.183 358.952 887.487 358.072 883.087 358.072C862.057 358.072 847.098 382.007 838.211 429.875C834.427 455.569 831.787 468.416 830.291 468.416C827.387 471.232 824.748 472.64 822.372 472.64C820.7 472.64 819.644 471.056 819.204 467.888L833.459 377.079V364.408C833.459 351.209 828.707 338.538 819.204 326.395V323.227C821.668 315.836 824.836 312.14 828.707 312.14Z" fill="white"/>
</svg>
