<svg width="887" height="560" viewBox="0 0 887 560" fill="none" xmlns="http://www.w3.org/2000/svg">
<g clip-path="url(#clip0_5_24)">
<path d="M53.5011 476.102C44.5354 438.154 76.9118 408.694 119.142 396.886M382.732 401.414C428.658 414.56 476.536 420.801 523.504 422.329M382.732 401.414C275.365 370.681 183.556 378.875 119.142 396.886M382.732 401.414C381.884 393.399 397.537 378.292 462.215 374.923M828.99 374.246C825.41 375.604 780.397 389.72 776.32 391.14M610.649 348.21C608.802 352.774 603.346 362.922 582.5 368.5M523.504 422.329C528.976 423.75 534.391 425.905 539.784 428.624M523.504 422.329C569.658 423.83 595.818 423.524 637.5 418M705.455 515.744C688.556 517.45 667.502 510.927 653 505.5M119.142 396.886C149.882 399.891 174.172 404.689 194.077 410.783M370.282 521.404C345.816 511.503 324.57 497.729 309.5 486.313M194.077 410.783C190.5 424.5 186.476 444.822 199.5 457.5M194.077 410.783C194.916 411.042 194.077 410.783 194.916 411.042M194.916 411.042C200.383 407.832 224.476 405.094 237.5 406M194.916 411.042C203.742 413.777 211.701 416.769 218.976 419.974M249 433C257.3 427.717 289.5 422.329 312 433M218.976 419.974C232.383 434.163 258.532 480.483 257 499.5M218.976 419.974C238.837 428.723 253.606 439.059 267.015 450.089C278.665 459.672 274.456 457.454 286.5 467.5M309.5 486.313C310.777 494.854 317.995 516.424 323.358 523.668M309.5 486.313C305.491 483.276 290.175 470.565 286.5 467.5M286.5 467.5C318.5 467.5 326.242 465.406 338.5 464.5C350.758 463.594 363.26 472.729 368.367 476.125M455.512 374.246C461.577 372.359 497.669 345.178 501.5 332.5M462.215 374.923C470.621 374.485 479.854 374.246 489.987 374.246C491.603 374.246 493.199 374.24 494.775 374.229C498.051 374.205 501.243 374.156 504.351 374.085M462.215 374.923C470.515 378.093 500.521 398.755 504.351 406M504.351 374.085C514.467 373.852 495.931 374.757 504.351 374.085ZM504.351 374.085C509.459 379.504 560 398.896 579 395.5M504.351 374.085C524.279 372.494 566.598 368.5 582.5 368.5M537.5 372.237C539.415 372.237 567.576 347.5 569.47 330.5M582.5 368.5C586.65 369.967 614.5 373.5 616.5 390.5M539.784 428.624C546.487 434.27 565 471.5 549 502.5M539.784 428.624C551.261 434.411 562.637 442.753 574.259 452.019M574.259 452.019C583.197 460.431 609.691 516.294 613.522 533.5M574.259 452.019C583.919 459.721 593.749 468.062 603.945 476.102C607.1 478.59 610.29 481.049 613.522 483.452M590.538 463.673C595.965 465.294 629.137 453.107 634.5 446.5M613.522 483.452C622.779 483.273 654.5 477 675.5 466M613.522 483.452C627.587 493.911 636.899 499.475 653 505.5M653 505.5C653.638 509.904 667.839 542.378 675.5 546M637.5 418C649.63 416.027 720.113 438.543 738.5 460.277M637.5 418C647.286 416.703 666.145 414.043 675.5 412.5M675.5 412.5C681.246 408.933 703.156 368.273 705.455 356.5M675.5 412.5C688.425 410.368 710.75 406.51 722.692 404.031M722.692 404.031C729.396 400.14 752.766 347.178 752 334.5M722.692 404.031C725.924 403.36 729.117 402.679 732.268 401.99M732.268 401.99C740.887 403.307 785.508 415.116 797 445M732.268 401.99C741.931 399.875 751.206 397.679 760.04 395.442C765.649 394.021 771.08 392.584 776.32 391.14M776.32 391.14C781.975 389.583 787.407 388.018 792.599 386.458C801.658 383.738 768.81 393.756 776.32 391.14ZM776.32 391.14C777.596 386.353 798.5 341.5 838 337" stroke="#C5E2B4" stroke-width="21" stroke-linecap="round"/>
<path d="M53.5011 466.102C44.5354 428.154 76.9118 398.694 119.142 386.886M382.732 391.414C428.658 404.56 476.536 410.801 523.504 412.329M382.732 391.414C275.365 360.681 183.556 368.875 119.142 386.886M382.732 391.414C381.884 383.399 397.537 368.292 462.215 364.923M828.99 364.246C825.41 365.604 780.397 379.72 776.32 381.14M610.649 338.21C608.802 342.774 603.346 352.922 582.5 358.5M523.504 412.329C528.976 413.75 534.391 415.905 539.784 418.624M523.504 412.329C569.658 413.83 595.818 413.524 637.5 408M705.455 505.744C688.556 507.45 667.502 500.927 653 495.5M119.142 386.886C149.882 389.891 174.172 394.689 194.077 400.783M370.282 511.404C345.816 501.503 324.57 487.729 309.5 476.313M194.077 400.783C190.5 414.5 186.476 434.822 199.5 447.5M194.077 400.783C194.916 401.042 194.077 400.783 194.916 401.042M194.916 401.042C200.383 397.832 224.476 395.094 237.5 396M194.916 401.042C203.742 403.777 211.701 406.769 218.976 409.974M249 423C257.3 417.717 289.5 412.329 312 423M218.976 409.974C232.383 424.163 258.532 470.483 257 489.5M218.976 409.974C238.837 418.723 253.606 429.059 267.015 440.089C278.665 449.672 274.456 447.454 286.5 457.5M309.5 476.313C310.777 484.854 317.995 506.424 323.358 513.668M309.5 476.313C305.491 473.276 290.175 460.565 286.5 457.5M286.5 457.5C318.5 457.5 326.242 455.406 338.5 454.5C350.758 453.594 363.26 462.729 368.367 466.125M454.5 365.396C460.565 363.509 497.669 335.178 501.5 322.5M462.215 364.923C470.621 364.485 479.854 364.246 489.987 364.246C491.603 364.246 493.199 364.24 494.775 364.229C498.051 364.205 501.243 364.156 504.351 364.085M462.215 364.923C470.515 368.093 500.521 388.755 504.351 396M504.351 364.085C514.467 363.852 495.931 364.757 504.351 364.085ZM504.351 364.085C509.459 369.504 560 388.896 579 385.5M504.351 364.085C524.279 362.494 566.598 358.5 582.5 358.5M537.5 362.237C539.415 362.237 566.106 333 568 316M582.5 358.5C586.65 359.967 614.5 363.5 616.5 380.5M539.784 418.624C546.487 424.27 565 461.5 549 492.5M539.784 418.624C551.261 424.411 562.637 432.753 574.259 442.019M574.259 442.019C583.197 450.431 609.691 506.294 613.522 523.5M574.259 442.019C583.919 449.721 593.749 458.062 603.945 466.102C607.1 468.59 610.29 471.049 613.522 473.452M590.538 453.673C595.965 455.294 629.137 443.107 634.5 436.5M613.522 473.452C622.779 473.273 654.5 467 675.5 456M613.522 473.452C627.587 483.911 636.899 489.475 653 495.5M653 495.5C653.638 499.904 667.839 532.378 675.5 536M637.5 408C649.63 406.027 720.113 428.543 738.5 450.277M637.5 408C647.286 406.703 666.145 404.043 675.5 402.5M675.5 402.5C681.246 398.933 703.156 358.273 705.455 346.5M675.5 402.5C688.425 400.368 710.75 396.51 722.692 394.031M722.692 394.031C729.396 390.14 752.766 337.178 752 324.5M722.692 394.031C725.924 393.36 729.117 392.679 732.268 391.99M732.268 391.99C740.887 393.307 785.508 405.116 797 435M732.268 391.99C741.931 389.875 751.206 387.679 760.04 385.442C765.649 384.021 771.08 382.584 776.32 381.14M776.32 381.14C781.975 379.583 787.407 378.018 792.599 376.458C801.658 373.738 768.81 383.756 776.32 381.14ZM776.32 381.14C777.596 376.353 798.5 331.5 838 327" stroke="#3B532D" stroke-width="6" stroke-linecap="round"/>
<path d="M156.076 14.9326H157.132C162.675 14.9326 171.475 28.6595 183.53 56.1135C204.736 96.2385 226.558 116.301 248.997 116.301C267.827 116.301 280.85 105.742 288.066 84.6234C292.641 67.6406 294.929 51.9778 294.929 37.6349C296.689 33.3232 299.681 29.8034 303.905 27.0757H306.544C307.776 27.0757 308.832 29.0115 309.712 32.8832L309.184 35.523C309.184 69.6645 302.849 111.901 290.178 162.234C279.09 196.815 267.651 223.037 255.86 240.9C235.27 273.633 208.344 290 175.082 290C146.132 290 120.438 277.681 98 253.043V250.403C99.4959 240.9 102.488 236.148 106.975 236.148H109.087C131.877 258.674 155.108 269.937 178.778 269.937H183.002C211.951 269.937 236.062 251.635 255.332 215.03C264.484 198.311 273.459 172.089 282.258 136.363L285.954 116.829C273.987 129.5 261.844 135.836 249.525 135.836H243.717C215.031 135.836 187.929 108.558 162.411 54.0016H161.883V59.8092L161.355 60.3372L161.883 60.8651V72.4803C161.883 103.894 169.803 126.772 185.641 141.115V142.699L184.586 143.755H184.058C176.93 143.755 169.011 135.66 160.299 119.469C151.5 95.0946 146.748 71.8643 146.044 49.778L144.988 40.2747C146.396 23.3799 150.092 14.9326 156.076 14.9326ZM325.023 143.623H325.551C327.311 144.679 328.191 145.911 328.191 147.319L323.439 213.842V214.37H323.967C331.711 202.403 342.622 192.371 356.701 184.276C374.651 175.125 391.37 170.549 406.857 170.549H409.497C411.961 170.549 413.192 171.781 413.192 174.245V175.301C411.873 183.748 407.649 187.972 400.521 187.972C383.099 187.972 364.268 194.659 344.03 208.034C332.414 217.537 326.607 227.921 326.607 239.184C326.607 253.527 333.118 263.91 346.141 270.333C350.189 271.389 354.413 271.917 358.813 271.917H363.036C379.491 271.917 396.034 263.822 412.664 247.631H413.192V248.687C405.537 265.758 390.05 278.781 366.732 287.756C361.188 289.164 356.261 289.868 351.949 289.868C341.038 289.868 331.535 285.468 323.439 276.669L323.967 280.365L325.023 303.067C325.023 306.411 322.031 309.931 316.048 313.626H313.408C310.592 313.626 309.184 295.148 309.184 258.19V250.271C309.184 218.153 311.12 185.068 314.992 151.014C318.072 146.087 321.415 143.623 325.023 143.623ZM482.223 155.766C510.469 155.766 529.3 171.077 538.715 201.699C541.531 211.906 542.939 220.881 542.939 228.625C542.939 250.095 533.259 267.694 513.901 281.421C501.846 287.052 490.407 289.868 479.583 289.868C470.168 289.868 459.785 287.932 448.434 284.06V284.588C444.562 345.392 440.69 390.444 436.819 419.746C433.651 433.561 430.131 443.944 426.259 450.896C418.076 463.919 408.749 470.431 398.278 470.431H394.054L392.47 468.847V467.263C392.47 466.647 395.462 464.711 401.445 461.455C409.629 453.36 415.084 442.977 417.812 430.306C423.092 409.011 429.955 326.649 438.403 183.22C438.403 176.708 440.514 172.309 444.738 170.021C454.065 160.518 466.56 155.766 482.223 155.766ZM447.906 261.886L447.378 262.414C455.033 266.638 464.361 268.75 475.36 268.75H478.528C502.11 268.75 518.125 258.718 526.572 238.656L528.156 227.041C528.156 208.122 518.301 192.811 498.59 181.108C491.727 178.292 484.863 176.884 478 176.884H477.472C461.281 177.764 453.185 180.228 453.185 184.276C449.666 218.153 447.906 244.023 447.906 261.886ZM615.929 149.035H619.097C641.447 149.035 657.462 163.465 667.141 192.327C669.253 200.335 670.309 208.078 670.309 215.558V216.086C670.309 235.268 663.27 253.923 649.191 272.049C637.928 284.016 625.609 290 612.234 290C591.291 290 575.628 277.857 565.245 253.571C561.373 243.275 559.438 233.244 559.438 223.477C559.438 202.007 567.709 181.768 584.252 162.762C594.635 153.61 605.194 149.035 615.929 149.035ZM574.22 215.558V217.141C574.22 239.052 582.492 255.771 599.035 267.298C604.754 269.762 609.858 270.993 614.345 270.993C632.824 270.993 646.551 257.97 655.526 231.924L656.582 221.893V219.253C656.582 201.303 649.367 185.992 634.936 173.321C628.6 169.801 622.969 168.041 618.041 168.041H613.817C600.09 168.041 588.651 176.664 579.5 193.911C575.98 201.303 574.22 208.518 574.22 215.558ZM696.707 132.14C700.931 132.14 706.211 140.587 712.546 157.482C714.658 164.433 715.714 172.529 715.714 181.768V188.632C727.241 169.625 741.672 160.122 759.007 160.122C775.901 160.122 784.349 174.377 784.349 202.887V219.253C784.349 248.115 788.396 264.482 796.492 268.354C800.715 271.169 805.291 272.577 810.219 272.577C811.627 274.249 812.331 275.657 812.331 276.801C809.955 285.6 806.611 290 802.299 290C792.268 290 783.997 284.72 777.485 274.161C773.262 264.746 771.15 254.363 771.15 243.012L772.206 215.03V211.334C772.206 195.671 768.862 185.464 762.174 180.712C759.183 178.952 755.487 178.072 751.087 178.072C730.057 178.072 715.098 202.007 706.211 249.875C702.427 275.569 699.787 288.416 698.291 288.416C695.387 291.232 692.748 292.64 690.372 292.64C688.7 292.64 687.644 291.056 687.204 287.888L701.459 197.079V184.408C701.459 171.209 696.707 158.538 687.204 146.395V143.227C689.668 135.836 692.836 132.14 696.707 132.14Z" fill="#3B532D"/>
</g>
<defs>
<clipPath id="clip0_5_24">
<rect width="887" height="560" fill="white"/>
</clipPath>
</defs>
</svg>
