<?xml version="1.0" encoding="utf-8"?>
<!-- Generator: Adobe Illustrator 25.2.1, SVG Export Plug-In . SVG Version: 6.00 Build 0)  -->
<!DOCTYPE svg [
	<!ENTITY ns_extend "http://ns.adobe.com/Extensibility/1.0/">
	<!ENTITY ns_ai "http://ns.adobe.com/AdobeIllustrator/10.0/">
	<!ENTITY ns_graphs "http://ns.adobe.com/Graphs/1.0/">
	<!ENTITY ns_vars "http://ns.adobe.com/Variables/1.0/">
	<!ENTITY ns_imrep "http://ns.adobe.com/ImageReplacement/1.0/">
	<!ENTITY ns_sfw "http://ns.adobe.com/SaveForWeb/1.0/">
	<!ENTITY ns_custom "http://ns.adobe.com/GenericCustomNamespace/1.0/">
	<!ENTITY ns_adobe_xpath "http://ns.adobe.com/XPath/1.0/">
]>
<svg version="1.2" baseProfile="tiny" id="Yandex_Logo" xmlns:x="&ns_extend;" xmlns:i="&ns_ai;" xmlns:graph="&ns_graphs;"
	 xmlns="http://www.w3.org/2000/svg" xmlns:xlink="http://www.w3.org/1999/xlink" x="0px" y="0px" viewBox="0 0 877.1 106"
	 overflow="visible" xml:space="preserve">
<metadata>
	<sfw  xmlns="&ns_sfw;">
		<slices></slices>
		<sliceSourceBounds  bottomLeftOrigin="true" height="106" width="887.1" x="0" y="0"></sliceSourceBounds>
	</sfw>
</metadata>
<path id="Name" d="M349.9,92.3c7.2,0,12.3-1.3,16.1-4.1V75.5c-3.9,2.7-8.6,4.4-15.2,4.4c-11.1,0-15.7-8.6-15.7-22.2
	c0-14.3,5.6-21.6,15.8-21.6c6,0,11.9,2.1,15,4.1V27c-3.3-1.8-9-3.1-16.8-3.1c-19.9,0-30.2,14.3-30.2,34.3
	C319,80.1,329.1,92.3,349.9,92.3z M252.6,86.5V73.8c-4.8,3.3-13,6.2-20.5,6.2c-11.4,0-15.7-5.4-16.4-16.4h37.6v-8.2
	c0-22.9-10.1-31.5-25.6-31.5c-19,0-28,14.5-28,34.4c0,22.9,11.3,34,31.1,34C240.7,92.3,248,89.6,252.6,86.5z M109.9,25.1v26H89.1
	v-26H73.5V91h15.6V63.5h20.8V91h15.6V25.1H109.9z M195.8,78.6h-6.9V25.1h-45.4v5.6c0,16.1-1,36.9-6.5,47.9h-5V106h14.4V91h34.9v15
	h14.4V78.6H195.8z M302.3,91H320l-25-35.5l22-30.4h-15.7l-22,30.4V25.1h-15.6V91h15.6V58.6L302.3,91z M227.3,36.1
	c7.7,0,10.1,6.4,10.1,14.7v1.3h-21.7C216.1,41.6,219.9,36.1,227.3,36.1z M173.3,78.6h-22c4.3-9.9,5.5-27.9,5.5-39.3v-2h16.5V78.6z"
	/>
<path id="Glyph" fill="#FC3F1D" d="M60.5,91H44.6V12.3h-7.1c-13,0-19.8,6.5-19.8,16.2c0,11,4.7,16.1,14.4,22.6l8,5.4L17.1,91H0
	l20.7-30.8C8.8,51.7,2.1,43.4,2.1,29.4C2.1,11.9,14.3,0,37.4,0h23L60.5,91L60.5,91z"/>
<path fill="#FFE000" stroke="#000000" stroke-miterlimit="10" d="M438.3,26.8l7.4,15c0.3,0.7,1,1.1,1.7,1.3l16.5,2.4
	c1.9,0.3,2.6,2.6,1.3,3.9l-12,11.7c-0.5,0.5-0.8,1.3-0.7,2l2.8,16.5c0.3,1.9-1.6,3.3-3.3,2.4l-14.8-7.8c-0.7-0.4-1.5-0.4-2.1,0
	l-14.8,7.8c-1.7,0.9-3.6-0.5-3.3-2.4l2.8-16.5c0.1-0.7-0.1-1.5-0.7-2l-12-11.7c-1.4-1.3-0.6-3.6,1.3-3.9L425,43
	c0.7-0.1,1.4-0.6,1.7-1.3l7.4-15C435,25.1,437.4,25.1,438.3,26.8z"/>
<path fill="#FFE000" stroke="#000000" stroke-miterlimit="10" d="M502.8,26.8l7.4,15c0.3,0.7,1,1.1,1.7,1.3l16.5,2.4
	c1.9,0.3,2.6,2.6,1.3,3.9l-12,11.7c-0.5,0.5-0.8,1.3-0.7,2l2.8,16.5c0.3,1.9-1.6,3.3-3.3,2.4l-14.8-7.8c-0.7-0.4-1.5-0.4-2.1,0
	l-14.8,7.8c-1.7,0.9-3.6-0.5-3.3-2.4l2.8-16.5c0.1-0.7-0.1-1.5-0.7-2l-12-11.7c-1.4-1.3-0.6-3.6,1.3-3.9l16.5-2.4
	c0.7-0.1,1.4-0.6,1.7-1.3l7.4-15C499.6,25.1,502,25.1,502.8,26.8z"/>
<path fill="#FFE000" stroke="#000000" stroke-miterlimit="10" d="M567.4,26.8l7.4,15c0.3,0.7,1,1.1,1.7,1.3l16.5,2.4
	c1.9,0.3,2.6,2.6,1.3,3.9l-12,11.7c-0.5,0.5-0.8,1.3-0.7,2l2.8,16.5c0.3,1.9-1.6,3.3-3.3,2.4l-14.8-7.8c-0.7-0.4-1.5-0.4-2.1,0
	l-14.8,7.8c-1.7,0.9-3.6-0.5-3.3-2.4L549,63c0.1-0.7-0.1-1.5-0.7-2l-12-11.7c-1.4-1.3-0.6-3.6,1.3-3.9l16.5-2.4
	c0.7-0.1,1.4-0.6,1.7-1.3l7.4-15C564.2,25.1,566.6,25.1,567.4,26.8z"/>
<path fill="#FFE000" stroke="#000000" stroke-miterlimit="10" d="M632,26.8l7.4,15c0.3,0.7,1,1.1,1.7,1.3l16.5,2.4
	c1.9,0.3,2.6,2.6,1.3,3.9L647,61c-0.5,0.5-0.8,1.3-0.7,2l2.8,16.5c0.3,1.9-1.6,3.3-3.3,2.4L631,74.2c-0.7-0.4-1.5-0.4-2.1,0
	l-14.8,7.8c-1.7,0.9-3.6-0.5-3.3-2.4l2.8-16.5c0.1-0.7-0.1-1.5-0.7-2l-12-11.7c-1.4-1.3-0.6-3.6,1.3-3.9l16.5-2.4
	c0.7-0.1,1.4-0.6,1.7-1.3l7.4-15C628.7,25.1,631.2,25.1,632,26.8z"/>
<path fill="#FFE000" stroke="#000000" stroke-miterlimit="10" d="M696.6,26.8l7.4,15c0.3,0.7,1,1.1,1.7,1.3l16.5,2.4
	c1.9,0.3,2.6,2.6,1.3,3.9l-12,11.7c-0.5,0.5-0.8,1.3-0.7,2l2.8,16.5c0.3,1.9-1.6,3.3-3.3,2.4l-14.8-7.8c-0.7-0.4-1.5-0.4-2.1,0
	l-14.8,7.8c-1.7,0.9-3.6-0.5-3.3-2.4l2.8-16.5c0.1-0.7-0.1-1.5-0.7-2l-12-11.7c-1.4-1.3-0.6-3.6,1.3-3.9l16.5-2.4
	c0.7-0.1,1.4-0.6,1.7-1.3l7.4-15C693.3,25.1,695.7,25.1,696.6,26.8z"/>
<line fill="none" x1="709.7" y1="39.7" x2="709.7" y2="86.9"/>
<path fill="#FFFFFF" stroke="#000000" stroke-miterlimit="10" d="M709.7,81.6l0.7,0.4c1.7,0.9,3.6-0.5,3.3-2.4L710.9,63
	c-0.1-0.7,0.1-1.5,0.7-2l12-11.7c1.4-1.3,0.6-3.6-1.3-3.9l-12.5-1.8"/>
<line fill="none" x1="887.1" y1="40" x2="887.1" y2="34.8"/>
<line fill="none" x1="887.1" y1="96.2" x2="887.1" y2="89.3"/>
<g>
	<path d="M782.1,70.9h-6.7v8.6H759v-8.6h-26.1V60.1l21.3-30.9h17.4l-19,28.5h6.8V50h16v7.7h6.7V70.9z"/>
	<path d="M788,77.6c-1.8-1.7-2.7-4-2.7-6.7s0.9-4.9,2.7-6.6c1.8-1.7,4.1-2.6,6.8-2.6s5,0.9,6.8,2.6c1.8,1.7,2.7,3.9,2.7,6.6
		s-0.9,5-2.7,6.7c-1.8,1.7-4.1,2.6-6.8,2.6S789.8,79.4,788,77.6z"/>
	<path d="M839.7,30.9c3.6,1.9,6.4,4.6,8.4,8.3c2,3.7,3,8.2,3,13.6c0,5.7-1.2,10.7-3.5,14.9c-2.3,4.2-5.6,7.4-9.8,9.6
		c-4.2,2.2-9.1,3.3-14.6,3.3c-3,0-5.9-0.3-8.6-1c-2.7-0.7-5.1-1.7-7-2.9l6.1-11.9c2.5,1.8,5.5,2.7,9.1,2.7c2.9,0,5.3-0.7,7.2-2.2
		c1.9-1.5,3.1-3.6,3.7-6.4c-2.6,1.9-6,2.8-10,2.8c-3.1,0-5.9-0.7-8.6-2c-2.6-1.3-4.7-3.2-6.3-5.7c-1.6-2.4-2.4-5.2-2.4-8.4
		c0-3.5,0.9-6.6,2.7-9.3c1.8-2.7,4.3-4.7,7.4-6.2c3.1-1.4,6.6-2.2,10.3-2.2C831.8,28.1,836,29,839.7,30.9z M831.9,48.6
		c1-0.9,1.4-2.2,1.4-3.8c0-1.6-0.5-2.8-1.4-3.7c-1-0.9-2.2-1.4-3.7-1.4c-1.5,0-2.8,0.5-3.7,1.4c-1,0.9-1.4,2.2-1.4,3.7
		c0,1.6,0.5,2.8,1.4,3.8c1,0.9,2.2,1.4,3.7,1.4C829.7,50,830.9,49.6,831.9,48.6z"/>
</g>
</svg>
